<?xml version="1.0" encoding="UTF-8" standalone="no"?>
<svg
   id="flag-icon-css-au"
   viewBox="0 0 160 120"
   version="1.1"
   sodipodi:docname="au.svg"
   width="160"
   height="120"
   inkscape:version="1.2.2 (732a01da63, 2022-12-09)"
   xmlns:inkscape="http://www.inkscape.org/namespaces/inkscape"
   xmlns:sodipodi="http://sodipodi.sourceforge.net/DTD/sodipodi-0.dtd"
   xmlns="http://www.w3.org/2000/svg"
   xmlns:svg="http://www.w3.org/2000/svg">
  <defs
     id="defs12" />
  <sodipodi:namedview
     id="namedview10"
     pagecolor="#ffffff"
     bordercolor="#000000"
     borderopacity="0.25"
     inkscape:showpageshadow="2"
     inkscape:pageopacity="0.0"
     inkscape:pagecheckerboard="0"
     inkscape:deskcolor="#d1d1d1"
     showgrid="false"
     inkscape:zoom="2.19375"
     inkscape:cx="84.786325"
     inkscape:cy="87.521367"
     inkscape:window-width="1920"
     inkscape:window-height="1009"
     inkscape:window-x="-8"
     inkscape:window-y="-8"
     inkscape:window-maximized="1"
     inkscape:current-layer="flag-icon-css-au" />
  <path
     id="path617"
     fill="#000066"
     stroke-width="1.3"
     d="M 0,0 H 160 V 120 H 0 Z" />
  <path
     id="path625"
     fill="#ffffff"
     fill-rule="evenodd"
     stroke-width="1.3"
     d="m 74.95,98.125 -10.925,0.95 1.5,10.85 L 58,102 l -7.525,7.925 1.5,-10.85 L 41.05,98.125 50.475,92.55 44.4,83.425 54.65,87.3 58,76.875 61.375,87.3 71.625,83.425 65.55,92.55 m 56.1,15.575 -2.65,-3.95 4.45,1.675 1.45,-4.525 1.45,4.525 4.45,-1.675 -2.625,3.95 4.1,2.425 -4.75,0.425 0.65,4.725 -3.25,-3.475 -3.3,3.475 0.65,-4.725 -4.75,-0.4 m 4.1,-72.975 -2.625,-3.95 4.45,1.675 1.45,-4.525 1.45,4.525 4.45,-1.675 -2.625,3.95 4.1,2.45 -4.75,0.4 0.65,4.725 -3.25,-3.45 -3.3,3.425 0.65,-4.7 -4.75,-0.4 M 95.2,66.25 92.575,62.3 l 4.45,1.675 1.45,-4.525 1.475,4.525 4.45,-1.675 -2.65,3.95 4.1,2.425 -4.75,0.425 0.675,4.725 -3.3,-3.475 -3.25,3.475 L 95.85,69.1 91.1,68.7 m 54.075,-9.5 -2.675,-3.95 4.45,1.675 1.45,-4.525 1.475,4.525 4.45,-1.675 -2.625,3.95 4.075,2.425 -4.75,0.425 0.65,4.7 -3.25,-3.45 -3.3,3.45 0.65,-4.7 -4.75,-0.425 M 135.5,80 l -2.575,1.625 0.725,-2.975 -2.325,-1.95 3.025,-0.25 1.15,-2.8 1.175,2.825 3.025,0.225 -2.325,1.95 0.725,2.975" />
  <path
     id="path969"
     fill="#000066"
     stroke-width="0.5"
     d="M 0,0 H 80 V 60 H 0 Z" />
  <path
     id="path971"
     fill="#ffffff"
     stroke-width="0.5"
     d="M 9.375,0 39.875,22.625 70.25,0 H 80 V 7.75 L 50,30.125 80,52.375 V 60 H 70 L 40,37.625 10.125,60 H 0 V 52.5 L 29.875,30.25 0,8 V 0 Z" />
  <path
     id="path973"
     fill="#c8102e"
     stroke-width="0.5"
     d="M 53,35.125 80,55 v 5 L 46.125,35.125 Z m -23,2.5 0.75,4.375 -24,18 H 0 Z M 80,0 v 0.375 l -31.125,23.5 0.25,-5.5 L 73.75,0 Z M 0,0 29.875,22 h -7.5 L 0,5.25 Z" />
  <path
     id="path975"
     fill="#ffffff"
     stroke-width="0.5"
     d="m 30.125,0 v 60 h 20 V 0 Z M 0,20 V 40 H 80 V 20 Z" />
  <path
     id="path977"
     fill="#c8102e"
     stroke-width="0.5"
     d="m 0,24.125 v 12 h 80 v -12 z M 34.125,0 v 60 h 12 V 0 Z" />
</svg>
