<?xml version="1.0" encoding="UTF-8" standalone="no"?>
<svg
   id="flag-icon-css-br"
   viewBox="0 0 160 120"
   version="1.1"
   sodipodi:docname="br.svg"
   width="160"
   height="120"
   inkscape:version="1.2.2 (732a01da63, 2022-12-09)"
   xmlns:inkscape="http://www.inkscape.org/namespaces/inkscape"
   xmlns:sodipodi="http://sodipodi.sourceforge.net/DTD/sodipodi-0.dtd"
   xmlns="http://www.w3.org/2000/svg"
   xmlns:svg="http://www.w3.org/2000/svg">
  <defs
     id="defs449" />
  <sodipodi:namedview
     id="namedview447"
     pagecolor="#ffffff"
     bordercolor="#000000"
     borderopacity="0.25"
     inkscape:showpageshadow="2"
     inkscape:pageopacity="0.0"
     inkscape:pagecheckerboard="0"
     inkscape:deskcolor="#d1d1d1"
     showgrid="false"
     inkscape:zoom="1.2212323"
     inkscape:cx="146.57326"
     inkscape:cy="131.0152"
     inkscape:window-width="1920"
     inkscape:window-height="1009"
     inkscape:window-x="-8"
     inkscape:window-y="-8"
     inkscape:window-maximized="1"
     inkscape:current-layer="flag-icon-css-br" />
  <g
     stroke-width="4pt"
     id="g444"
     transform="scale(0.25)">
    <path
       fill="#229e45"
       fill-rule="evenodd"
       d="M 0,0 H 640 V 480 H 0 Z"
       id="path378"
       style="stroke-width:16pt" />
    <path
       fill="#f8e509"
       fill-rule="evenodd"
       d="M 321.4,436 622.9,240.3 319.6,44 17.1,240.7 Z"
       id="path380"
       style="stroke-width:16pt" />
    <path
       fill="#2b49a3"
       fill-rule="evenodd"
       d="m 452.8,240 c 0,70.3 -57.1,127.3 -127.6,127.3 A 127.4,127.4 0 1 1 452.8,240 Z"
       id="path382"
       style="stroke-width:16pt" />
    <path
       fill="#ffffef"
       fill-rule="evenodd"
       d="m 283.3,316.3 -4,-2.3 -4,2 0.9,-4.5 -3.2,-3.4 4.5,-0.5 2.2,-4 1.9,4.2 4.4,0.8 -3.3,3 m 86,26.3 -3.9,-2.3 -4,2 0.8,-4.5 -3.1,-3.3 4.5,-0.5 2.1,-4.1 2,4.2 4.4,0.8 -3.4,3.1 m -36.2,-30 -3.4,-2 -3.5,1.8 0.8,-3.9 -2.8,-2.9 4,-0.4 1.8,-3.6 1.6,3.7 3.9,0.7 -3,2.7 m 87,-8.5 -3.4,-2 -3.5,1.8 0.8,-3.9 -2.7,-2.8 3.9,-0.4 1.8,-3.5 1.6,3.6 3.8,0.7 -2.9,2.6 m -87.3,-22 -4,-2.2 -4,2 0.8,-4.6 -3.1,-3.3 4.5,-0.5 2.1,-4.1 2,4.2 4.4,0.8 -3.4,3.2 m -104.6,-35 -4,-2.2 -4,2 1,-4.6 -3.3,-3.3 4.6,-0.5 2,-4.1 2,4.2 4.4,0.8 -3.3,3.1 m 13.3,57.2 -4,-2.3 -4,2 0.9,-4.5 -3.2,-3.3 4.5,-0.6 2.1,-4 2,4.2 4.4,0.8 -3.3,3.1 m 132,-67.3 -3.6,-2 -3.6,1.8 0.8,-4 -2.8,-3 4,-0.5 1.9,-3.6 1.7,3.8 4,0.7 -3,2.7 m -6.7,38.3 -2.7,-1.6 -2.9,1.4 0.6,-3.2 -2.2,-2.3 3.2,-0.4 1.5,-2.8 1.3,3 3,0.5 -2.2,2.2 m -142.2,50.4 -2.7,-1.5 -2.7,1.3 0.6,-3 -2.1,-2.2 3,-0.4 1.4,-2.7 1.3,2.8 3,0.6 -2.3,2 m 200.2,15.3 -2.2,-1.1 -2.2,1 0.5,-2.3 -1.7,-1.6 2.4,-0.3 1.2,-2 1,2 2.5,0.5 -1.9,1.5"
       id="path384"
       style="stroke-width:16pt" />
    <path
       fill="#ffffef"
       fill-rule="evenodd"
       d="m 219.3,287.6 -2.7,-1.5 -2.7,1.3 0.6,-3 -2.1,-2.2 3,-0.4 1.4,-2.7 1.3,2.8 3,0.6 -2.3,2"
       id="path386"
       style="stroke-width:16pt" />
    <path
       fill="#ffffef"
       fill-rule="evenodd"
       d="m 219.3,287.6 -2.7,-1.5 -2.7,1.3 0.6,-3 -2.1,-2.2 3,-0.4 1.4,-2.7 1.3,2.8 3,0.6 -2.3,2 m 42.3,3 -2.6,-1.4 -2.7,1.3 0.6,-3 -2.1,-2.2 3,-0.4 1.4,-2.7 1.3,2.8 3,0.5 -2.3,2.1 m -4.8,17 -2.6,-1.5 -2.7,1.4 0.6,-3 -2.1,-2.3 3,-0.4 1.4,-2.7 1.3,2.8 3,0.6 -2.3,2 m 87.4,-22.2 -2.6,-1.6 -2.8,1.4 0.6,-3 -2,-2.3 3,-0.3 1.4,-2.7 1.2,2.8 3,0.5 -2.2,2.1 m -25.1,3 -2.7,-1.5 -2.7,1.4 0.6,-3 -2,-2.3 3,-0.3 1.4,-2.8 1.2,2.9 3,0.5 -2.2,2.1 m -68.8,-5.8 -1.7,-1 -1.7,0.8 0.4,-1.9 -1.3,-1.4 1.9,-0.2 0.8,-1.7 0.8,1.8 1.9,0.3 -1.4,1.3 m 167.8,45.4 -2.6,-1.5 -2.7,1.4 0.6,-3 -2.1,-2.3 3,-0.4 1.4,-2.7 1.3,2.8 3,0.6 -2.3,2 m -20.8,6 -2.2,-1.4 -2.3,1.2 0.5,-2.6 -1.7,-1.8 2.5,-0.3 1.2,-2.3 1,2.4 2.5,0.4 -1.9,1.8 m 10.4,2.3 -2,-1.2 -2.1,1 0.4,-2.3 -1.6,-1.7 2.3,-0.3 1.1,-2 1,2 2.3,0.5 -1.7,1.6 m 29.1,-22.8 -2,-1 -2,1 0.5,-2.3 -1.6,-1.7 2.3,-0.3 1,-2 1,2.1 2.1,0.4 -1.6,1.6 m -38.8,41.8 -2.5,-1.4 -2.7,1.2 0.6,-2.8 -2,-2 3,-0.3 1.3,-2.5 1.2,2.6 3,0.5 -2.3,1.9 m 0.6,14.2 -2.4,-1.4 -2.4,1.3 0.6,-2.8 -1.9,-2 2.7,-0.4 1.2,-2.5 1.1,2.6 2.7,0.5 -2,2 m -19,-23.1 -1.9,-1.2 -2,1 0.4,-2.2 -1.5,-1.7 2.2,-0.2 1,-2 1,2 2.2,0.4 -1.6,1.6 m -17.8,2.3 -2,-1.2 -2,1 0.5,-2.2 -1.6,-1.7 2.3,-0.2 1,-2 1,2 2.1,0.4 -1.6,1.6 m -30.4,-24.6 -2,-1.1 -2,1 0.5,-2.3 -1.6,-1.6 2.2,-0.3 1,-2 1,2 2.2,0.5 -1.6,1.5 m 3.7,57 -1.6,-0.9 -1.8,0.9 0.4,-2 -1.3,-1.4 1.9,-0.2 0.9,-1.7 0.8,1.8 1.9,0.3 -1.4,1.3 m -46.2,-86.6 -4,-2.3 -4,2 0.9,-4.5 -3.2,-3.3 4.5,-0.6 2.2,-4 1.9,4.2 4.4,0.8 -3.3,3.1"
       id="path388"
       style="stroke-width:16pt" />
    <path
       fill="#ffffff"
       fill-rule="evenodd"
       d="M 444.4,285.8 A 124.6,124.6 0 0 0 450.2,266 C 382.4,206.5 306.9,176 211.5,182.3 a 124.5,124.5 0 0 0 -8.5,20.9 c 113,-10.8 196,39.2 241.4,82.6 z"
       id="path390"
       style="stroke-width:16pt" />
    <path
       fill="#309e3a"
       d="m 414,252.4 2.3,1.3 a 3.4,3.4 0 0 0 -0.3,2.2 3,3 0 0 0 1.4,1.7 c 0.7,0.5 1.4,0.8 2,0.7 0.6,0 1,-0.3 1.3,-0.7 a 1.3,1.3 0 0 0 0.2,-0.9 2.3,2.3 0 0 0 -0.5,-1 c -0.2,-0.3 -0.7,-1 -1.5,-1.8 a 7.7,7.7 0 0 1 -1.8,-3 3.7,3.7 0 0 1 2,-4.4 3.8,3.8 0 0 1 2.3,-0.2 7,7 0 0 1 2.6,1.2 c 1.4,1 2.3,2 2.6,3.2 A 4.1,4.1 0 0 1 426,254 l -2.4,-1.5 c 0.3,-0.6 0.4,-1.2 0.2,-1.7 -0.1,-0.5 -0.5,-1 -1.2,-1.4 a 3.2,3.2 0 0 0 -1.8,-0.7 1,1 0 0 0 -0.9,0.5 c -0.2,0.3 -0.2,0.6 -0.1,1 0.1,0.4 0.6,1.2 1.6,2.2 1,1 1.6,1.9 2,2.5 a 3.9,3.9 0 0 1 -0.3,4.2 4.1,4.1 0 0 1 -1.9,1.5 4,4 0 0 1 -2.4,0.3 c -0.9,-0.2 -1.8,-0.6 -2.8,-1.3 -1.5,-1 -2.4,-2.1 -2.7,-3.3 a 5.4,5.4 0 0 1 0.6,-4 z m -11.6,-7.6 2.5,1.3 a 3.4,3.4 0 0 0 -0.2,2.2 3,3 0 0 0 1.4,1.6 c 0.8,0.5 1.4,0.7 2,0.6 0.6,0 1,-0.3 1.3,-0.8 a 1.3,1.3 0 0 0 0.2,-0.8 c 0,-0.3 -0.2,-0.7 -0.5,-1 a 34.6,34.6 0 0 0 -1.6,-1.8 c -1.1,-1.1 -1.8,-2 -2,-2.8 a 3.7,3.7 0 0 1 0.4,-3.1 3.6,3.6 0 0 1 1.6,-1.4 3.8,3.8 0 0 1 2.2,-0.3 7,7 0 0 1 2.6,1 c 1.5,1 2.4,2 2.7,3.1 a 4.1,4.1 0 0 1 -0.4,3.4 l -2.5,-1.4 c 0.3,-0.7 0.4,-1.2 0.2,-1.7 -0.2,-0.5 -0.6,-1 -1.3,-1.4 a 3.2,3.2 0 0 0 -1.9,-0.6 1,1 0 0 0 -0.8,0.5 c -0.2,0.3 -0.2,0.6 -0.1,1 0.1,0.4 0.7,1.2 1.7,2.2 1,1 1.7,1.8 2,2.4 a 3.9,3.9 0 0 1 0,4.2 4.2,4.2 0 0 1 -1.8,1.6 4,4 0 0 1 -2.4,0.3 8,8 0 0 1 -2.9,-1.1 6,6 0 0 1 -2.8,-3.2 5.4,5.4 0 0 1 0.4,-4 z m -14.2,-3.8 7.3,-12 8.8,5.5 -1.2,2 -6.4,-4 -1.6,2.7 6,3.7 -1.3,2 -6,-3.7 -2,3.3 6.7,4 -1.2,2 -9,-5.5 z m -20.7,-17 1.1,-2 5.4,2.7 -2.5,5 c -0.8,0.2 -1.8,0.3 -3,0.2 a 9.4,9.4 0 0 1 -3.3,-1 7.7,7.7 0 0 1 -3,-2.6 6,6 0 0 1 -1,-3.5 8.6,8.6 0 0 1 1,-3.7 8,8 0 0 1 2.6,-3 6.2,6.2 0 0 1 3.6,-1.1 c 1,0 2,0.3 3.2,1 1.6,0.7 2.6,1.7 3.1,2.8 a 5,5 0 0 1 0.3,3.5 l -2.7,-0.8 a 3,3 0 0 0 -0.2,-2 c -0.3,-0.6 -0.8,-1 -1.6,-1.4 a 3.8,3.8 0 0 0 -3.1,-0.3 c -1,0.3 -1.9,1.2 -2.6,2.6 -0.7,1.4 -1,2.7 -0.7,3.8 a 3.7,3.7 0 0 0 2,2.4 c 0.5,0.3 1.1,0.5 1.7,0.5 a 6,6 0 0 0 1.8,0 l 0.8,-1.6 z m -90.2,-22.3 2,-14 4.2,0.7 1.1,9.8 3.9,-9 4.2,0.6 -2,13.8 -2.7,-0.4 1.7,-10.9 -4.4,10.5 -2.7,-0.4 -1.1,-11.3 -1.6,11 z m -14.1,-1.7 1.3,-14 10.3,1 -0.2,2.4 -7.5,-0.7 -0.3,3 7,0.7 -0.3,2.4 -7,-0.7 -0.3,3.8 7.8,0.7 -0.2,2.4 z"
       id="path392"
       style="stroke-width:16pt" />
    <g
       stroke-opacity="0.5"
       id="g398"
       style="stroke-width:16pt">
      <path
         fill="#309e3a"
         d="m 216.5,191.3 c 0,-1.5 0.3,-2.6 0.7,-3.6 a 6.7,6.7 0 0 1 1.4,-1.9 5.4,5.4 0 0 1 1.8,-1.2 c 1,-0.3 2,-0.5 3,-0.5 2.1,0 3.7,0.8 5,2 a 7.4,7.4 0 0 1 1.6,5.5 c 0,2.2 -0.7,4 -2,5.3 a 6.5,6.5 0 0 1 -5,1.7 6.6,6.6 0 0 1 -4.8,-2 7.3,7.3 0 0 1 -1.7,-5.3 z"
         id="path394"
         style="stroke-width:64pt" />
      <path
         fill="#f7ffff"
         d="m 219.4,191.3 c 0,1.5 0.3,2.7 1,3.6 0.7,0.8 1.6,1.3 2.8,1.3 a 3.5,3.5 0 0 0 2.8,-1.1 c 0.7,-0.8 1,-2 1.1,-3.7 0,-1.6 -0.2,-2.8 -1,-3.6 a 3.5,3.5 0 0 0 -2.7,-1.3 3.6,3.6 0 0 0 -2.8,1.2 c -0.8,0.8 -1.1,2 -1.2,3.6 z"
         id="path396"
         style="stroke-width:64pt" />
    </g>
    <g
       stroke-opacity="0.5"
       id="g404"
       style="stroke-width:16pt">
      <path
         fill="#309e3a"
         d="m 233,198.5 0.2,-14 h 6 c 1.5,0 2.5,0.2 3.2,0.5 0.7,0.2 1.2,0.7 1.6,1.3 0.4,0.6 0.6,1.4 0.6,2.3 a 3.8,3.8 0 0 1 -1,2.6 4.5,4.5 0 0 1 -2.7,1.2 l 1.5,1.2 c 0.4,0.4 0.9,1.2 1.5,2.3 l 1.7,2.8 h -3.4 l -2,-3.2 -1.4,-2 a 2.1,2.1 0 0 0 -0.9,-0.6 5,5 0 0 0 -1.4,-0.2 h -0.6 v 5.8 z"
         id="path400"
         style="stroke-width:64pt" />
      <path
         fill="#ffffff"
         d="m 236,190.5 h 2 c 1.4,0 2.3,0 2.6,-0.2 0.3,0 0.6,-0.3 0.8,-0.5 0.2,-0.2 0.3,-0.7 0.3,-1 0,-0.6 -0.1,-1 -0.4,-1.2 -0.2,-0.3 -0.6,-0.5 -1,-0.6 h -2 l -2.3,-0.1 v 3.5 z"
         id="path402"
         style="stroke-width:64pt" />
    </g>
    <g
       stroke-opacity="0.5"
       id="g410"
       style="stroke-width:16pt">
      <path
         fill="#309e3a"
         d="m 249,185.2 5.2,0.3 c 1.1,0 2,0.1 2.6,0.3 a 4.7,4.7 0 0 1 2,1.4 6,6 0 0 1 1.2,2.4 c 0.3,0.9 0.4,2 0.3,3.3 a 9.3,9.3 0 0 1 -0.5,3 c -0.4,1 -1,1.8 -1.7,2.4 a 5,5 0 0 1 -2,1 c -0.6,0.2 -1.5,0.2 -2.5,0.2 l -5.3,-0.3 z"
         id="path406"
         style="stroke-width:64pt" />
      <path
         fill="#ffffff"
         d="m 251.7,187.7 -0.5,9.3 h 3.8 c 0.5,0 0.9,-0.2 1.2,-0.5 0.3,-0.3 0.6,-0.7 0.8,-1.3 0.2,-0.6 0.4,-1.5 0.4,-2.6 l -0.1,-2.5 a 3.2,3.2 0 0 0 -0.8,-1.4 2.7,2.7 0 0 0 -1.2,-0.7 13,13 0 0 0 -2.3,-0.3 z"
         id="path408"
         style="stroke-width:64pt" />
    </g>
    <g
       stroke-opacity="0.5"
       id="g416"
       style="stroke-width:16pt">
      <path
         fill="#309e3a"
         d="m 317.6,210.2 3.3,-13.6 4.4,1 3.2,1 c 0.7,0.4 1.3,1 1.6,1.9 0.4,0.8 0.4,1.7 0.2,2.8 -0.2,0.8 -0.5,1.5 -1,2 a 3.9,3.9 0 0 1 -3,1.4 c -0.7,0 -1.7,-0.2 -3,-0.5 l -1.7,-0.5 -1.2,5.2 z"
         id="path412"
         style="stroke-width:64pt" />
      <path
         fill="#ffffff"
         d="m 323,199.6 -0.8,3.8 1.5,0.4 c 1,0.2 1.8,0.4 2.2,0.3 a 1.9,1.9 0 0 0 1.6,-1.5 c 0,-0.5 0,-0.9 -0.2,-1.3 a 2,2 0 0 0 -1,-0.9 l -1.9,-0.5 -1.3,-0.3 z"
         id="path414"
         style="stroke-width:64pt" />
    </g>
    <g
       stroke-opacity="0.5"
       id="g422"
       style="stroke-width:16pt">
      <path
         fill="#309e3a"
         d="m 330.6,214.1 4.7,-13.2 5.5,2 c 1.5,0.5 2.4,1 3,1.4 0.5,0.5 0.9,1 1,1.8 0.1,0.8 0.2,1.5 0,2.3 -0.4,1 -1,1.7 -1.8,2.2 -0.8,0.4 -1.8,0.5 -3,0.3 0.4,0.5 0.8,1 1,1.6 l 0.8,2.7 0.6,3.1 -3.1,-1.1 -1,-3.6 a 19.5,19.5 0 0 0 -0.7,-2.4 2.1,2.1 0 0 0 -0.6,-0.8 c -0.2,-0.3 -0.6,-0.5 -1.3,-0.7 l -0.5,-0.2 -2,5.6 z"
         id="path418"
         style="stroke-width:64pt" />
      <path
         fill="#ffffff"
         d="m 336,207.4 1.9,0.7 c 1.3,0.5 2.1,0.7 2.5,0.7 0.3,0 0.6,0 0.9,-0.3 0.3,-0.2 0.5,-0.5 0.6,-0.9 0.2,-0.4 0.2,-0.8 0,-1.2 a 1.7,1.7 0 0 0 -0.8,-0.9 l -2,-0.7 -2,-0.7 -1.2,3.3 z"
         id="path420"
         style="stroke-width:64pt" />
    </g>
    <g
       stroke-opacity="0.5"
       id="g428"
       style="stroke-width:16pt">
      <path
         fill="#309e3a"
         d="m 347,213.6 a 9,9 0 0 1 1.7,-3.2 6.6,6.6 0 0 1 1.8,-1.5 6,6 0 0 1 2,-0.7 c 1,0 2,0 3.1,0.4 a 6.5,6.5 0 0 1 4.2,3.3 c 0.8,1.6 0.8,3.5 0.2,5.7 a 7.4,7.4 0 0 1 -3.4,4.5 c -1.5,0.9 -3.3,1 -5.2,0.4 a 6.6,6.6 0 0 1 -4.2,-3.3 7.3,7.3 0 0 1 -0.2,-5.6 z"
         id="path424"
         style="stroke-width:64pt" />
      <path
         fill="#ffffff"
         d="m 349.8,214.4 c -0.4,1.5 -0.5,2.8 0,3.8 0.5,1 1.2,1.6 2.3,2 1,0.3 2,0.2 3,-0.4 1,-0.5 1.6,-1.6 2.1,-3.2 0.5,-1.5 0.5,-2.7 0,-3.7 a 3.5,3.5 0 0 0 -2.2,-2 3.6,3.6 0 0 0 -3,0.3 c -1,0.6 -1.7,1.6 -2.2,3.2 z"
         id="path426"
         style="stroke-width:64pt" />
    </g>
    <g
       stroke-opacity="0.5"
       id="g434"
       style="stroke-width:16pt">
      <path
         fill="#309e3a"
         d="m 374.3,233.1 6.4,-12.4 5.3,2.7 a 10,10 0 0 1 2.7,1.9 c 0.5,0.5 0.8,1.1 0.8,1.9 0,0.8 0,1.5 -0.4,2.2 a 3.8,3.8 0 0 1 -2,2 c -1,0.2 -2,0.2 -3.1,-0.2 0.4,0.6 0.6,1.2 0.8,1.7 0.2,0.6 0.3,1.5 0.4,2.8 l 0.2,3.2 -3,-1.5 -0.4,-3.7 a 20,20 0 0 0 -0.3,-2.5 2,2 0 0 0 -0.5,-1 l -1.2,-0.7 -0.5,-0.3 -2.7,5.2 z"
         id="path430"
         style="stroke-width:64pt" />
      <path
         fill="#ffffff"
         d="m 380.5,227.2 1.9,1 c 1.2,0.6 2,1 2.3,1 0.3,0 0.7,0 1,-0.2 0.3,-0.1 0.5,-0.4 0.7,-0.8 0.2,-0.4 0.3,-0.8 0.2,-1.2 a 2,2 0 0 0 -0.7,-1 23.7,23.7 0 0 0 -1.8,-1 l -2,-1 z"
         id="path432"
         style="stroke-width:64pt" />
    </g>
    <g
       stroke-opacity="0.5"
       id="g440"
       style="stroke-width:16pt">
      <path
         fill="#309e3a"
         d="m 426.1,258.7 a 8.9,8.9 0 0 1 2.5,-2.6 6.6,6.6 0 0 1 2.2,-0.9 5.5,5.5 0 0 1 2.2,0 c 1,0.2 1.9,0.6 2.8,1.2 a 6.6,6.6 0 0 1 3,4.4 c 0.3,1.7 -0.2,3.6 -1.4,5.5 a 7.3,7.3 0 0 1 -4.5,3.3 6.5,6.5 0 0 1 -5.2,-1.1 6.6,6.6 0 0 1 -3,-4.4 c -0.3,-1.8 0.2,-3.6 1.4,-5.4 z"
         id="path436"
         style="stroke-width:64pt" />
      <path
         fill="#ffffff"
         d="m 428.6,260.3 c -1,1.3 -1.3,2.5 -1.1,3.6 a 3.6,3.6 0 0 0 1.6,2.5 c 1,0.7 2,0.9 3,0.6 1,-0.3 2,-1 2.9,-2.4 0.9,-1.4 1.3,-2.6 1.1,-3.6 -0.1,-1 -0.7,-1.9 -1.6,-2.6 -0.9,-0.7 -2,-0.8 -3,-0.5 -1,0.2 -2,1 -3,2.4 z"
         id="path438"
         style="stroke-width:64pt" />
    </g>
    <path
       fill="#309e3a"
       d="m 301.8,204.5 2.3,-9.8 7.2,1.7 -0.3,1.6 -5.3,-1.2 -0.5,2.2 4.9,1.1 -0.4,1.7 -4.9,-1.2 -0.6,2.7 5.5,1.3 -0.4,1.6 z"
       id="path442"
       style="stroke-width:16pt" />
  </g>
</svg>
