<?xml version="1.0" encoding="UTF-8" standalone="no"?>
<svg
   id="flag-icon-css-ca"
   viewBox="0 0 160 120"
   version="1.1"
   sodipodi:docname="ca.svg"
   width="160"
   height="120"
   inkscape:version="1.2.2 (732a01da63, 2022-12-09)"
   xmlns:inkscape="http://www.inkscape.org/namespaces/inkscape"
   xmlns:sodipodi="http://sodipodi.sourceforge.net/DTD/sodipodi-0.dtd"
   xmlns="http://www.w3.org/2000/svg"
   xmlns:svg="http://www.w3.org/2000/svg">
  <defs
     id="defs621" />
  <sodipodi:namedview
     id="namedview619"
     pagecolor="#ffffff"
     bordercolor="#000000"
     borderopacity="0.25"
     inkscape:showpageshadow="2"
     inkscape:pageopacity="0.0"
     inkscape:pagecheckerboard="0"
     inkscape:deskcolor="#d1d1d1"
     showgrid="false"
     inkscape:zoom="2.4424647"
     inkscape:cx="94.167176"
     inkscape:cy="65.5076"
     inkscape:window-width="1920"
     inkscape:window-height="1009"
     inkscape:window-x="-8"
     inkscape:window-y="-8"
     inkscape:window-maximized="1"
     inkscape:current-layer="flag-icon-css-ca" />
  <path
     fill="#ffffff"
     d="M 39.994466,0 H 120.00555 V 120 H 39.994466 Z"
     id="path614"
     style="stroke-width:0.9375" />
  <path
     fill="#d52b1e"
     d="M 0,0 H 39.994466 V 120 H 0 Z m 120.00555,0 h 39.99446 v 120 h -39.97239 z m -68.01937,57.984375 -3.135954,1.125 14.465143,13.476562 c 1.10421,3.445313 -0.375431,4.453125 -1.325051,6.28125 L 77.670092,76.757812 77.29466,93.515625 80.563119,93.421875 79.834342,76.78125 95.558354,78.773437 C 94.586651,76.59375 93.725296,75.445312 94.608728,71.976562 l 14.443062,-12.773437 -2.5176,-0.984375 c -2.07591,-1.6875 0.88337,-8.132813 1.32505,-12.210938 0,0 -8.414068,3.070313 -8.966175,1.453125 l -2.164256,-4.382812 -7.663276,8.953125 c -0.839199,0.210937 -1.192546,-0.140625 -1.391305,-0.890625 L 91.207698,32.4375 85.598315,35.789062 C 85.134547,36.023437 84.670779,35.835932 84.3616,35.25 L 78.950974,23.765625 73.38576,35.695312 c -0.419601,0.421875 -0.8392,0.46875 -1.192547,0.1875 l -5.344374,-3.1875 3.224292,18.539063 c -0.26501,0.75 -0.883368,0.9375 -1.590062,0.539062 L 61.129035,42.9375 c -0.949621,1.640625 -1.590062,4.289062 -2.870945,4.898437 -1.2588,0.5625 -5.521047,-1.125 -8.369907,-1.78125 0.971703,3.726563 4.019321,9.914063 2.097997,11.953125 z"
     id="path616"
     style="stroke-width:0.9375" />
</svg>
