<?xml version="1.0" encoding="UTF-8" standalone="no"?>
<svg
   id="flag-icon-css-kr"
   viewBox="0 0 160 120"
   version="1.1"
   sodipodi:docname="kr.svg"
   width="160"
   height="120"
   inkscape:version="1.2.2 (732a01da63, 2022-12-09)"
   xmlns:inkscape="http://www.inkscape.org/namespaces/inkscape"
   xmlns:sodipodi="http://sodipodi.sourceforge.net/DTD/sodipodi-0.dtd"
   xmlns="http://www.w3.org/2000/svg"
   xmlns:svg="http://www.w3.org/2000/svg">
  <sodipodi:namedview
     id="namedview1566"
     pagecolor="#ffffff"
     bordercolor="#000000"
     borderopacity="0.25"
     inkscape:showpageshadow="2"
     inkscape:pageopacity="0.0"
     inkscape:pagecheckerboard="0"
     inkscape:deskcolor="#d1d1d1"
     showgrid="false"
     inkscape:zoom="0.86354167"
     inkscape:cx="147.06876"
     inkscape:cy="280.24125"
     inkscape:window-width="1920"
     inkscape:window-height="1009"
     inkscape:window-x="-8"
     inkscape:window-y="-8"
     inkscape:window-maximized="1"
     inkscape:current-layer="flag-icon-css-kr" />
  <defs
     id="defs1531">
    <clipPath
       id="kr-a">
      <path
         fill-opacity="0.7"
         d="m -95.8,-0.4 h 682.7 v 512 H -95.8 Z"
         id="path1528" />
    </clipPath>
  </defs>
  <g
     fill-rule="evenodd"
     clip-path="url(#kr-a)"
     transform="matrix(0.234375,0,0,0.234375,22.440625,0.11875)"
     id="g1563"
     style="stroke-width:4">
    <path
       fill="#ffffff"
       d="M 610.6,511.6 H -119.6 V -0.4 H 610.6 Z"
       id="path1533"
       style="stroke-width:16" />
    <path
       fill="#ffffff"
       d="m 251.9,256 a 112.5,112.5 0 1 1 -225,0 112.5,112.5 0 0 1 225,0 z"
       id="path1535"
       style="stroke-width:16" />
    <path
       fill="#c70000"
       d="m 393,262.6 c 0,81 -65,146.8 -145.3,146.8 -80.3,0 -145.2,-65.8 -145.2,-146.8 0,-81 65,-146.9 145.3,-146.9 80.3,0 145.2,65.9 145.2,146.9 z"
       id="path1537"
       style="stroke-width:16" />
    <path
       d="m -49.4,126.4 83.6,-96.7 19.9,17.1 -83.7,96.8 z m 27.4,23.7 83.6,-96.7 19.9,17 -83.7,96.9 z"
       id="path1539"
       style="stroke-width:4" />
    <path
       d="M -49.4,126.4 34.2,29.7 54.1,46.8 -29.6,143.6 Z"
       id="path1541"
       style="stroke-width:4" />
    <path
       d="M -49.4,126.4 34.2,29.7 54.1,46.8 -29.6,143.6 Z M 6,174.4 89.6,77.5 109.5,94.7 25.8,191.5 Z"
       id="path1543"
       style="stroke-width:4" />
    <path
       d="M -49.4,126.4 34.2,29.7 54.1,46.8 -29.6,143.6 Z"
       id="path1545"
       style="stroke-width:4" />
    <path
       d="m -49.4,126.4 83.6,-96.7 19.9,17.1 -83.7,96.8 z m 508.8,-96.8 83,97.4 -20,17 -83,-97.4 z m -55.7,47.5 83,97.4 -20,17 -83,-97.4 z"
       id="path1547"
       style="stroke-width:4" />
    <path
       fill="#ffffff"
       d="m 417.6,133.2 78.4,-67.8 14.7,17 -84,75.4 -9.3,-24.6 z"
       id="path1549"
       style="stroke-width:16" />
    <path
       d="m 514.2,372 -80.4,95.8 -19.7,-16.4 80.4,-95.8 z m -82.4,-318.9 83,97.4 -19.9,17 L 412,70 Z m 109.7,341.6 -80.5,95.8 -19.8,-16.4 80.5,-95.8 z m -55.1,-45.8 -80.4,95.8 -19.7,-16.4 80.4,-95.8 z"
       id="path1551"
       style="stroke-width:4" />
    <path
       fill="#3d5897"
       d="m 104.6,236.7 c 4.6,37 11.3,78.2 68.2,82.4 21.3,1.3 62.8,-5 77,-63.2 18.8,-55.8 75,-71.8 113.3,-41.6 21.9,14.2 27.9,36.7 29.3,53.7 -1.7,54 -32.9,101 -72.8,122 -46,27.3 -109.6,27.9 -165.3,-13.5 -25.1,-23.5 -60.2,-67 -49.7,-139.8 z"
       id="path1553"
       style="stroke-width:16" />
    <path
       fill="#ffffff"
       d="m 436,370.6 78.6,67.6 -14.6,17 -87.1,-71.8 23,-12.8 z"
       id="path1555"
       style="stroke-width:16" />
    <path
       d="m -1.9,357.2 83,97.3 -20,17 -83,-97.3 z"
       id="path1557"
       style="stroke-width:4" />
    <path
       fill="#ffffff"
       d="m -16.2,437.3 78.6,-67.9 14.7,17 -84,75.5 -9.3,-24.7 z"
       id="path1559"
       style="stroke-width:16" />
    <path
       d="m 25.7,333.7 83,97.3 -20,17 -83,-97.3 z m -55.7,47.5 83,97.3 -20,17 -83,-97.3 z"
       id="path1561"
       style="stroke-width:4" />
  </g>
</svg>
