<?xml version="1.0" encoding="UTF-8" standalone="no"?>
<svg
   id="flag-icon-css-sg"
   viewBox="0 0 160 120"
   version="1.1"
   sodipodi:docname="sg.svg"
   width="160"
   height="120"
   inkscape:version="1.2.2 (732a01da63, 2022-12-09)"
   xmlns:inkscape="http://www.inkscape.org/namespaces/inkscape"
   xmlns:sodipodi="http://sodipodi.sourceforge.net/DTD/sodipodi-0.dtd"
   xmlns="http://www.w3.org/2000/svg"
   xmlns:svg="http://www.w3.org/2000/svg">
  <sodipodi:namedview
     id="namedview1890"
     pagecolor="#ffffff"
     bordercolor="#000000"
     borderopacity="0.25"
     inkscape:showpageshadow="2"
     inkscape:pageopacity="0.0"
     inkscape:pagecheckerboard="0"
     inkscape:deskcolor="#d1d1d1"
     showgrid="false"
     inkscape:zoom="0.86354167"
     inkscape:cx="193.38963"
     inkscape:cy="291.82147"
     inkscape:window-width="1920"
     inkscape:window-height="1009"
     inkscape:window-x="-8"
     inkscape:window-y="-8"
     inkscape:window-maximized="1"
     inkscape:current-layer="flag-icon-css-sg" />
  <defs
     id="defs1877">
    <clipPath
       id="sg-a">
      <path
         fill-opacity="0.7"
         d="M 0,0 H 640 V 480 H 0 Z"
         id="path1874" />
    </clipPath>
  </defs>
  <g
     fill-rule="evenodd"
     clip-path="url(#sg-a)"
     id="g1887"
     transform="scale(0.25)"
     style="stroke-width:4">
    <path
       fill="#ffffff"
       d="M -20,0 H 700 V 480 H -20 Z"
       id="path1879"
       style="stroke-width:16" />
    <path
       fill="#df0000"
       d="M -20,0 H 700 V 240 H -20 Z"
       id="path1881"
       style="stroke-width:16" />
    <path
       fill="#ffffff"
       d="m 146,40.2 a 84.4,84.4 0 0 0 0.8,165.2 86,86 0 0 1 -106.6,-59 86,86 0 0 1 59,-106 c 16,-4.6 30.8,-4.7 46.9,-0.2 z"
       id="path1883"
       style="stroke-width:16" />
    <path
       fill="#ffffff"
       d="m 133,110 4.9,15 -13,-9.2 -12.8,9.4 4.7,-15.2 -12.8,-9.3 15.9,-0.2 5,-15 5,15 h 15.8 z m 17.5,52 5,15.1 -13,-9.2 -12.9,9.3 4.8,-15.1 -12.8,-9.4 15.9,-0.1 4.9,-15.1 5,15 h 16 z m 58.5,-0.4 4.9,15.2 -13,-9.3 -12.8,9.3 4.7,-15.1 -12.8,-9.3 15.9,-0.2 5,-15 5,15 h 15.8 z m 17.4,-51.6 4.9,15.1 -13,-9.2 -12.8,9.3 4.8,-15.1 -12.9,-9.4 16,-0.1 4.8,-15.1 5,15 h 16 z m -46.3,-34.3 5,15.2 -13,-9.3 -12.9,9.4 4.8,-15.2 -12.8,-9.4 15.8,-0.1 5,-15.1 5,15 h 16 z"
       id="path1885"
       style="stroke-width:16" />
  </g>
</svg>
