<?xml version="1.0" encoding="UTF-8" standalone="no"?>
<svg
   id="flag-icon-css-us"
   viewBox="0 0 160 120"
   version="1.1"
   sodipodi:docname="us.svg"
   width="160"
   height="120"
   inkscape:version="1.2.2 (732a01da63, 2022-12-09)"
   xmlns:inkscape="http://www.inkscape.org/namespaces/inkscape"
   xmlns:sodipodi="http://sodipodi.sourceforge.net/DTD/sodipodi-0.dtd"
   xmlns="http://www.w3.org/2000/svg"
   xmlns:svg="http://www.w3.org/2000/svg">
  <defs
     id="defs2051" />
  <sodipodi:namedview
     id="namedview2049"
     pagecolor="#ffffff"
     bordercolor="#000000"
     borderopacity="0.25"
     inkscape:showpageshadow="2"
     inkscape:pageopacity="0.0"
     inkscape:pagecheckerboard="0"
     inkscape:deskcolor="#d1d1d1"
     showgrid="false"
     inkscape:zoom="2.4424647"
     inkscape:cx="141.66019"
     inkscape:cy="58.137995"
     inkscape:window-width="1920"
     inkscape:window-height="1009"
     inkscape:window-x="-8"
     inkscape:window-y="-8"
     inkscape:window-maximized="1"
     inkscape:current-layer="g2040" />
  <g
     fill-rule="evenodd"
     id="g2046"
     transform="scale(0.2,0.25)"
     style="stroke-width:4.47214">
    <g
       stroke-width="4.47214pt"
       id="g2040">
      <path
         fill="#bd3d44"
         d="M 0,0 H 800.00001 V 36.9375 H 0 Z m 0,73.875 h 800.00001 v 36.9375 H 0 Z m 0,73.78125 H 800.00001 V 184.6875 H 0 Z m 0,73.875 h 800.00001 v 36.9375 H 0 Z m 0,73.875 h 800.00001 v 36.9375 H 0 Z M 0,369.1875 H 800.00001 V 406.125 H 0 Z m 0,73.875 H 800.00001 V 480 H 0 Z"
         id="path2036"
         style="stroke-width:18.75pt" />
      <path
         fill="#ffffff"
         d="M 0,36.9375 H 800.00001 V 73.875 H 0 Z m 0,73.875 h 800.00001 v 36.84375 H 0 Z m 0,73.78125 h 800.00001 v 36.9375 H 0 Z m 0,73.875 h 800.00001 v 36.9375 H 0 Z m 0,73.875 h 800.00001 v 36.9375 H 0 Z M 0,406.125 h 800.00001 v 36.9375 H 0 Z"
         id="path2038"
         style="stroke-width:18.75pt" />
    </g>
    <path
       fill="#192f5d"
       d="M 0,0 H 389.1 V 275.7 H 0 Z"
       transform="scale(0.9375)"
       id="path2042"
       style="stroke-width:20" />
    <path
       fill="#ffffff"
       d="M 32.4,11.8 36,22.7 h 11.4 l -9.2,6.7 3.5,11 -9.3,-6.8 -9.2,6.7 3.5,-10.9 -9.3,-6.7 H 29 Z m 64.9,0 3.5,10.9 h 11.5 l -9.3,6.7 3.5,11 -9.2,-6.8 -9.3,6.7 3.5,-10.9 -9.2,-6.7 h 11.4 z m 64.8,0 3.6,10.9 H 177 l -9.2,6.7 3.5,11 -9.3,-6.8 -9.2,6.7 3.5,-10.9 -9.3,-6.7 h 11.5 z m 64.9,0 3.5,10.9 H 242 l -9.3,6.7 3.6,11 -9.3,-6.8 -9.3,6.7 3.6,-10.9 -9.3,-6.7 h 11.4 z m 64.8,0 3.6,10.9 h 11.4 l -9.2,6.7 3.5,11 -9.3,-6.8 -9.2,6.7 3.5,-10.9 -9.2,-6.7 h 11.4 z m 64.9,0 3.5,10.9 h 11.5 l -9.3,6.7 3.6,11 -9.3,-6.8 -9.3,6.7 3.6,-10.9 -9.3,-6.7 h 11.5 z M 64.9,39.4 68.4,50.3 H 79.9 L 70.6,57 74,67.9 65,61.2 55.7,67.9 59,57 50,50.3 h 11.4 z m 64.8,0 3.6,10.9 h 11.4 l -9.3,6.7 3.6,10.9 -9.3,-6.7 -9.3,6.7 3.6,-10.9 -9.3,-6.7 h 11.5 z m 64.9,0 3.5,10.9 h 11.5 l -9.3,6.7 3.5,10.9 -9.2,-6.7 -9.3,6.7 3.5,-10.9 -9.2,-6.7 H 191 Z m 64.8,0 3.6,10.9 h 11.4 l -9.3,6.7 3.6,10.9 -9.3,-6.7 -9.2,6.7 3.5,-10.9 -9.3,-6.7 H 256 Z m 64.9,0 3.5,10.9 h 11.5 l -9.3,6.7 3.5,10.9 -9.2,-6.7 -9.3,6.7 3.5,-10.9 -9.2,-6.7 h 11.4 z M 32.4,66.9 36,78 h 11.4 l -9.2,6.7 3.5,10.9 -9.3,-6.8 -9.2,6.8 3.5,-11 -9.3,-6.7 H 29 Z m 64.9,0 3.5,11 h 11.5 l -9.3,6.7 3.5,10.9 -9.2,-6.8 -9.3,6.8 3.5,-11 -9.2,-6.7 h 11.4 z m 64.8,0 3.6,11 H 177 l -9.2,6.7 3.5,10.9 -9.3,-6.8 -9.2,6.8 3.5,-11 -9.3,-6.7 h 11.5 z m 64.9,0 3.5,11 H 242 l -9.3,6.7 3.6,10.9 -9.3,-6.8 -9.3,6.8 3.6,-11 -9.3,-6.7 h 11.4 z m 64.8,0 3.6,11 h 11.4 l -9.2,6.7 3.5,10.9 -9.3,-6.8 -9.2,6.8 3.5,-11 -9.2,-6.7 h 11.4 z m 64.9,0 3.5,11 h 11.5 l -9.3,6.7 3.6,10.9 -9.3,-6.8 -9.3,6.8 3.6,-11 -9.3,-6.7 h 11.5 z m -291.8,27.6 3.5,10.9 h 11.5 l -9.3,6.7 3.5,11 -9.2,-6.8 -9.3,6.7 3.5,-10.9 -9.2,-6.7 h 11.4 z m 64.8,0 3.6,10.9 h 11.4 l -9.3,6.7 3.6,11 -9.3,-6.8 -9.3,6.7 3.6,-10.9 -9.3,-6.7 h 11.5 z m 64.9,0 3.5,10.9 h 11.5 l -9.3,6.7 3.5,11 -9.2,-6.8 -9.3,6.7 3.5,-10.9 -9.2,-6.7 H 191 Z m 64.8,0 3.6,10.9 h 11.4 l -9.2,6.7 3.5,11 -9.3,-6.8 -9.2,6.7 3.5,-10.9 -9.3,-6.7 H 256 Z m 64.9,0 3.5,10.9 h 11.5 l -9.3,6.7 3.5,11 -9.2,-6.8 -9.3,6.7 3.5,-10.9 -9.2,-6.7 h 11.4 z M 32.4,122.1 36,133 h 11.4 l -9.2,6.7 3.5,11 -9.3,-6.8 -9.2,6.7 3.5,-10.9 -9.3,-6.7 H 29 Z m 64.9,0 3.5,10.9 h 11.5 l -9.3,6.7 3.5,10.9 -9.2,-6.7 -9.3,6.7 3.5,-10.9 -9.2,-6.7 h 11.4 z m 64.8,0 3.6,10.9 H 177 l -9.2,6.7 3.5,11 -9.3,-6.8 -9.2,6.7 3.5,-10.9 -9.3,-6.7 h 11.5 z m 64.9,0 3.5,10.9 H 242 l -9.3,6.7 3.6,11 -9.3,-6.8 -9.3,6.7 3.6,-10.9 -9.3,-6.7 h 11.4 z m 64.8,0 3.6,10.9 h 11.4 l -9.2,6.7 3.5,11 -9.3,-6.8 -9.2,6.7 3.5,-10.9 -9.2,-6.7 h 11.4 z m 64.9,0 3.5,10.9 h 11.5 l -9.3,6.7 3.6,11 -9.3,-6.8 -9.3,6.7 3.6,-10.9 -9.3,-6.7 h 11.5 z m -291.8,27.6 3.5,10.9 h 11.5 l -9.3,6.7 3.5,10.9 -9.2,-6.8 -9.3,6.8 3.5,-11 -9.2,-6.7 h 11.4 z m 64.8,0 3.6,10.9 h 11.4 l -9.3,6.7 3.6,10.9 -9.3,-6.8 -9.3,6.8 3.6,-11 -9.3,-6.7 h 11.5 z m 64.9,0 3.5,10.9 h 11.5 l -9.3,6.7 3.5,10.9 -9.2,-6.8 -9.3,6.8 3.5,-11 -9.2,-6.7 H 191 Z m 64.8,0 3.6,10.9 h 11.4 l -9.2,6.7 3.5,10.9 -9.3,-6.8 -9.2,6.8 3.5,-11 -9.3,-6.7 H 256 Z m 64.9,0 3.5,10.9 h 11.5 l -9.3,6.7 3.5,10.9 -9.2,-6.8 -9.3,6.8 3.5,-11 -9.2,-6.7 h 11.4 z m -291.9,27.5 3.6,11 h 11.4 l -9.2,6.7 3.5,10.8 -9.3,-6.7 -9.2,6.7 3.5,-10.9 -9.3,-6.7 H 29 Z m 64.9,0 3.5,11 h 11.5 l -9.3,6.7 3.6,10.8 -9.3,-6.7 -9.3,6.7 3.6,-10.9 -9.3,-6.7 h 11.4 z m 64.8,0 3.6,11 H 177 l -9.2,6.7 3.5,10.8 -9.3,-6.7 -9.2,6.7 3.5,-10.9 -9.3,-6.7 h 11.5 z m 64.9,0 3.5,11 H 242 l -9.3,6.7 3.6,10.8 -9.3,-6.7 -9.3,6.7 3.6,-10.9 -9.3,-6.7 h 11.4 z m 64.8,0 3.6,11 h 11.4 l -9.2,6.7 3.5,10.8 -9.3,-6.7 -9.2,6.7 3.5,-10.9 -9.2,-6.7 h 11.4 z m 64.9,0 3.5,11 h 11.5 l -9.3,6.7 3.6,10.8 -9.3,-6.7 -9.3,6.7 3.6,-10.9 -9.3,-6.7 h 11.5 z m -291.8,27.6 3.5,10.9 h 11.5 l -9.3,6.7 3.5,11 -9.2,-6.8 -9.3,6.7 3.5,-10.9 -9.2,-6.7 h 11.4 z m 64.8,0 3.6,10.9 h 11.4 l -9.3,6.7 3.6,11 -9.3,-6.8 -9.3,6.7 3.6,-10.9 -9.3,-6.7 h 11.5 z m 64.9,0 3.5,10.9 h 11.5 l -9.3,6.7 3.5,11 -9.2,-6.8 -9.3,6.7 3.5,-10.9 -9.2,-6.7 H 191 Z m 64.8,0 3.6,10.9 h 11.4 l -9.2,6.7 3.5,11 -9.3,-6.8 -9.2,6.7 3.5,-10.9 -9.3,-6.7 H 256 Z m 64.9,0 3.5,10.9 h 11.5 l -9.3,6.7 3.5,11 -9.2,-6.8 -9.3,6.7 3.5,-10.9 -9.2,-6.7 h 11.4 z M 32.4,232.4 36,243.3 h 11.4 l -9.2,6.7 3.5,10.9 -9.3,-6.7 -9.2,6.7 3.5,-11 -9.3,-6.7 H 29 Z m 64.9,0 3.5,10.9 h 11.5 l -9.3,6.7 3.6,10.9 -9.3,-6.7 -9.3,6.7 3.6,-11 -9.3,-6.7 h 11.4 z m 64.8,0 3.6,10.9 H 177 l -9,6.7 3.5,10.9 -9.3,-6.7 -9.2,6.7 3.5,-11 -9.3,-6.7 h 11.5 z m 64.9,0 3.5,10.9 H 242 l -9.3,6.7 3.6,10.9 -9.3,-6.7 -9.3,6.7 3.6,-11 -9.3,-6.7 h 11.4 z m 64.8,0 3.6,10.9 h 11.4 l -9.2,6.7 3.5,10.9 -9.3,-6.7 -9.2,6.7 3.5,-11 -9.2,-6.7 h 11.4 z m 64.9,0 3.5,10.9 h 11.5 l -9.3,6.7 3.6,10.9 -9.3,-6.7 -9.3,6.7 3.6,-11 -9.3,-6.7 h 11.5 z"
       transform="scale(0.9375)"
       id="path2044"
       style="stroke-width:20" />
  </g>
</svg>
